<?xml version="1.0" encoding="utf-8"?>
<!-- Generator: Adobe Illustrator 27.4.1, SVG Export Plug-In . SVG Version: 6.00 Build 0)  -->
<svg version="1.1" xmlns="http://www.w3.org/2000/svg" xmlns:xlink="http://www.w3.org/1999/xlink" x="0px" y="0px"
	 viewBox="0 0 70 70" style="enable-background:new 0 0 70 70;" xml:space="preserve">
<style type="text/css">
	.st0{display:none;}
	.st1{display:inline;}
	.st2{fill:#FFFFFF;}
</style>
<g id="ICON-INICIO" class="st0">
	<g id="_14-eco_food" class="st1">
		<path class="st2" d="M30.6,23.8c1.6-0.1,3.1-0.3,4.7-0.6c2-1.5,3.3-3.9,3.3-6.4c0-4.3-4.2-8.4-8.4-8.4c-2.3,0-8-2-10-2.7
			c-0.3-0.1-0.6-0.1-0.8,0.1c-0.2,0.1-0.4,0.4-0.4,0.7c-0.1,0.4-1.3,9.8,3.9,14.7C24.9,22.9,27.8,23.9,30.6,23.8z M20.7,7.7
			c2.2,0.8,7.1,2.4,9.5,2.4c3.5,0.3,6.3,3.1,6.6,6.6c0,1.6-0.6,3.2-1.8,4.3l-7.8-8.7c-0.3-0.4-0.9-0.4-1.3-0.1s-0.4,0.9-0.1,1.3
			l7.3,8.1c-3.9,0.5-6.9-0.2-8.9-2.1C20.6,16.3,20.5,10.3,20.7,7.7z"/>
		<path class="st2" d="M37.7,28.8c0.6,2.5,2.4,4.1,4.6,4.1c4.1,0,8.4-2.1,8.4-6.6c0.1-2.5,0.4-4.9,0.9-7.3c0.1-0.5-0.2-0.9-0.6-1.1
			c-0.3-0.1-3.3-0.9-9.1,1.9C38.6,21.5,36.9,25.2,37.7,28.8z M42.7,21.5c2.1-1.2,4.4-1.8,6.7-2h0.2c-0.4,2.2-0.7,4.5-0.8,6.7
			c0,3.2-3.4,4.7-6.6,4.7c-0.2,0-0.4,0-0.7-0.1l4.2-5.9c0.3-0.4,0.2-1-0.2-1.3c-0.4-0.3-1-0.2-1.3,0.2c0,0,0,0,0,0l-4.2,5.9
			c-0.3-0.4-0.5-0.9-0.6-1.4C38.9,25.6,40.2,22.8,42.7,21.5z"/>
		<path class="st2" d="M55.8,43L55.8,43c0-2.2-3.2-3.6-10.2-4.6c-0.5-0.1-1,0.3-1.1,0.8c-0.1,0.5,0.3,1,0.8,1.1
			C53.8,41.5,54,43,54,43l0,0c0,1.3-6.6,3.7-18.7,3.7S16.5,44.3,16.5,43l0,0c0-1.3,6.6-3.7,18.7-3.7c0.5,0,0.9-0.4,0.9-0.9
			s-0.4-0.9-0.9-0.9c-9.9,0-20.5,1.8-20.6,5.6l0,0v0.1c0,1.2,0.7,22.4,20.6,22.4S55.8,44.2,55.8,43L55.8,43L55.8,43z M35.2,48.6
			c7.3,0,14.9-0.9,18.5-3c-0.1,0.7-0.2,1.4-0.4,2.2c-0.8,0.4-5.6,2.6-18.1,2.6s-17.4-2.2-18.1-2.6c-0.2-0.8-0.3-1.6-0.4-2.2
			C20.3,47.7,28,48.6,35.2,48.6z M35.2,63.6c-7.7,0-13.2-3.4-16.3-10.2c-0.5-1.1-0.9-2.2-1.2-3.3c2.4,0.9,7.8,2.2,17.6,2.2
			s15.1-1.3,17.6-2.2c-0.3,1.1-0.7,2.2-1.2,3.3C48.5,60.2,43,63.6,35.2,63.6z"/>
		<path class="st2" d="M59.6,26.1c-3.1,0-5.6,3.4-5.6,7.5c-0.1,2.5,0.9,4.9,2.8,6.5v22.6c0,1.6,1.3,2.8,2.8,2.8
			c1.6,0,2.8-1.3,2.8-2.8V40.1c1.9-1.6,2.9-4,2.8-6.5C65.2,29.5,62.7,26.1,59.6,26.1z M61,38.8c-0.3,0.2-0.4,0.5-0.4,0.8v23.1
			c0,0.5-0.4,0.9-0.9,0.9c-0.5,0-0.9-0.4-0.9-0.9V39.6c0-0.3-0.2-0.6-0.4-0.8c-1.4-0.9-2.4-2.9-2.4-5.2c0-3,1.7-5.6,3.7-5.6
			c2,0,3.7,2.6,3.7,5.6C63.3,35.9,62.4,37.9,61,38.8z"/>
		<path class="st2" d="M16.5,36.4V27c0-0.5-0.4-0.9-0.9-0.9s-0.9,0.4-0.9,0.9v5.6h-2.8V27c0-0.5-0.4-0.9-0.9-0.9
			c-0.5,0-0.9,0.4-0.9,0.9v5.6H7.1V27c0-0.5-0.4-0.9-0.9-0.9S5.2,26.5,5.2,27v9.4c0,1.7,1.2,3.2,2.8,3.6v22.6c0,1.6,1.3,2.8,2.8,2.8
			s2.8-1.3,2.8-2.8V40C15.3,39.6,16.5,38.1,16.5,36.4z M14.6,36.4c0,1-0.8,1.9-1.9,1.9c-0.5,0-0.9,0.4-0.9,0.9v23.4
			c0,0.5-0.4,0.9-0.9,0.9c-0.5,0-0.9-0.4-0.9-0.9V39.2c0-0.5-0.4-0.9-0.9-0.9c-1,0-1.9-0.8-1.9-1.9v-1.9h7.5V36.4z"/>
		<path class="st2" d="M32.2,28l-3.7,0.9c-0.5,0.1-0.8,0.6-0.7,1.1c0,0,0,0,0,0l0.9,4.7c0.1,0.3,0.3,0.5,0.5,0.7
			c0.1,0.1,0.3,0.1,0.4,0.1c0.2,0,0.3,0,0.5-0.1l4.7-2.8c0.4-0.3,0.6-0.8,0.3-1.3c0,0,0,0,0,0l-1.9-2.8C33,28.1,32.6,27.9,32.2,28z
			 M30.2,33.1l-0.5-2.5L32,30l0.9,1.4L30.2,33.1z"/>
		<path class="st2" d="M29.6,43c0,1.6,1.3,2.8,2.8,2.8c1.6,0,2.8-1.3,2.8-2.8c0-1.6-1.3-2.8-2.8-2.8C30.9,40.2,29.6,41.4,29.6,43z
			 M33.3,43c0,0.5-0.4,0.9-0.9,0.9c-0.5,0-0.9-0.4-0.9-0.9c0-0.5,0.4-0.9,0.9-0.9C32.9,42,33.3,42.5,33.3,43z"/>
		<path class="st2" d="M41.8,35.5H38c-0.5,0-0.9,0.4-0.9,0.9V42c0,0.5,0.4,0.9,0.9,0.9h0.1l5.6-0.9c0.3,0,0.5-0.2,0.7-0.5
			c0.1-0.2,0.2-0.5,0.1-0.8l-1.9-4.7C42.5,35.7,42.2,35.5,41.8,35.5z M39,40.9v-3.6h2.2l1.2,3L39,40.9z"/>
		<path class="st2" d="M29,59c-4.1-1.7-5-4.8-5-5c-0.1-0.5-0.6-0.8-1.1-0.7c-0.5,0.1-0.8,0.6-0.7,1.1c1,2.9,3.3,5.2,6.2,6.3
			c0.1,0,0.2,0.1,0.3,0.1c0.5,0,0.9-0.4,0.9-0.9C29.6,59.5,29.4,59.1,29,59z"/>
		<rect x="30.5" y="59.9" class="st2" width="1.9" height="1.9"/>
	</g>
</g>
<g id="FELCHA">
	<g id="Icon">
		<g id="_46">
			<path class="st2" d="M27.4,64.8c-0.5,0.4-1.1,0.6-1.8,0.6s-1.8-0.3-3.2-1c-1.4-0.6-2.6-1.6-3.5-2.8s-1.4-2.1-1.4-2.7
				c0-0.6,0.2-1.1,0.6-1.5l20.5-22.7L17.8,13.4c-0.4-0.4-0.6-0.9-0.6-1.5c0-0.6,0.4-1.5,1.4-2.7s2.1-2.2,3.5-2.8
				c1.4-0.6,2.5-1,3.2-1s1.3,0.2,1.8,0.7L50.5,32c0.9,0.9,1.4,1.8,1.4,2.5c0,0.8-0.3,1.4-1,2.1L27.4,64.8z"/>
		</g>
	</g>
</g>
</svg>
