<svg width="30" height="31" viewBox="0 0 30 31" fill="none" xmlns="http://www.w3.org/2000/svg">
<path d="M15 0.88855C6.717 0.88855 0 7.60555 0 15.8885C0 24.1716 6.717 30.8885 15 30.8885C23.283 30.8885 30 24.1716 30 15.8885C30 7.60555 23.283 0.88855 15 0.88855ZM10.6412 23.5643H6.98799V12.5737H10.6412V23.5643ZM8.8147 11.0729H8.79089C7.565 11.0729 6.77216 10.229 6.77216 9.1743C6.77216 8.09581 7.58926 7.27527 8.83896 7.27527C10.0887 7.27527 10.8577 8.09581 10.8815 9.1743C10.8815 10.229 10.0887 11.0729 8.8147 11.0729ZM23.8138 23.5643H20.1611V17.6846C20.1611 16.2069 19.6321 15.1992 18.3103 15.1992C17.3012 15.1992 16.7001 15.8789 16.436 16.5351C16.3394 16.77 16.3158 17.0982 16.3158 17.4266V23.5643H12.6629C12.6629 23.5643 12.7107 13.6048 12.6629 12.5737H16.3158V14.1298C16.8013 13.3809 17.6699 12.3157 19.6081 12.3157C22.0116 12.3157 23.8138 13.8865 23.8138 17.2623V23.5643Z" fill="white"/>
</svg>
