<svg width="30" height="30" viewBox="0 0 30 30" fill="none" xmlns="http://www.w3.org/2000/svg">
<path fill-rule="evenodd" clip-rule="evenodd" d="M15 0C23.2846 0 30 6.71543 30 15C30 23.2846 23.2846 30 15 30C6.71543 30 0 23.2846 0 15C0 6.71543 6.71543 0 15 0ZM11.8617 7.43379C9.03984 7.5627 7.55742 9.15059 7.43437 11.8617C7.34062 13.9143 7.34062 16.0857 7.43437 18.1383C7.55742 20.8494 9.03984 22.4373 11.8617 22.5662C13.9148 22.6594 16.0857 22.6594 18.1389 22.5662C20.85 22.442 22.4373 20.9619 22.5662 18.1383C22.6594 16.0852 22.6594 13.9154 22.5662 11.8617C22.4396 9.09844 20.9021 7.56035 18.1389 7.43379C16.0857 7.34063 13.9148 7.34063 11.8617 7.43379ZM18.0762 8.8043C20.1264 8.89746 21.1031 9.87363 21.1957 11.9244C21.2883 13.9342 21.2883 16.0658 21.1957 18.0756C21.1002 20.1855 20.073 21.1049 18.0762 21.1957C16.0652 21.2877 13.9354 21.2877 11.9244 21.1957C9.92695 21.1049 8.90039 20.1855 8.8043 18.0756C8.7123 16.0658 8.7123 13.9342 8.8043 11.9244C8.89512 9.92637 9.81504 8.90039 11.9244 8.8043C13.9354 8.7123 16.0652 8.7123 18.0762 8.8043ZM15 17.5371C13.599 17.5371 12.4629 16.4016 12.4629 15C12.4635 13.5984 13.599 12.4629 15 12.4629C16.4016 12.4629 17.5377 13.5984 17.5377 15C17.5377 16.401 16.4016 17.5371 15 17.5371ZM15 11.0912C12.842 11.0912 11.0912 12.8414 11.0912 15C11.0912 17.1586 12.8414 18.9088 15 18.9088C17.1592 18.9088 18.9088 17.1586 18.9088 15C18.9088 12.8414 17.1592 11.0912 15 11.0912ZM19.977 10.9365C19.977 11.441 19.568 11.8506 19.0635 11.8506C18.5584 11.8506 18.15 11.4416 18.15 10.9371C18.15 10.4326 18.5584 10.0236 19.0635 10.0236C19.568 10.0236 19.977 10.4326 19.977 10.9365Z" fill="white"/>
</svg>
