<?xml version="1.0" encoding="utf-8"?>
<!-- Generator: Adobe Illustrator 27.4.1, SVG Export Plug-In . SVG Version: 6.00 Build 0)  -->
<svg version="1.1" xmlns="http://www.w3.org/2000/svg" xmlns:xlink="http://www.w3.org/1999/xlink" x="0px" y="0px"
	 viewBox="0 0 70 70" style="enable-background:new 0 0 70 70;" xml:space="preserve">
<style type="text/css">
	.st0{display:none;}
	.st1{display:inline;}
	.st2{fill:#FFFFFF;}
	.st3{display:inline;fill:#FFFFFF;}
</style>
<g id="ICON-INICIO" class="st0">
	<g id="_14-eco_food" class="st1">
		<path class="st2" d="M30.6,23.8c1.6-0.1,3.1-0.3,4.7-0.6c2-1.5,3.3-3.9,3.3-6.4c0-4.3-4.2-8.4-8.4-8.4c-2.3,0-8-2-10-2.7
			c-0.3-0.1-0.6-0.1-0.8,0.1c-0.2,0.1-0.4,0.4-0.4,0.7c-0.1,0.4-1.3,9.8,3.9,14.7C24.9,22.9,27.8,23.9,30.6,23.8z M20.7,7.7
			c2.2,0.8,7.1,2.4,9.5,2.4c3.5,0.3,6.3,3.1,6.6,6.6c0,1.6-0.6,3.2-1.8,4.3l-7.8-8.7c-0.3-0.4-0.9-0.4-1.3-0.1s-0.4,0.9-0.1,1.3
			l7.3,8.1c-3.9,0.5-6.9-0.2-8.9-2.1C20.6,16.3,20.5,10.3,20.7,7.7z"/>
		<path class="st2" d="M37.7,28.8c0.6,2.5,2.4,4.1,4.6,4.1c4.1,0,8.4-2.1,8.4-6.6c0.1-2.5,0.4-4.9,0.9-7.3c0.1-0.5-0.2-0.9-0.6-1.1
			c-0.3-0.1-3.3-0.9-9.1,1.9C38.6,21.5,36.9,25.2,37.7,28.8z M42.7,21.5c2.1-1.2,4.4-1.8,6.7-2h0.2c-0.4,2.2-0.7,4.5-0.8,6.7
			c0,3.2-3.4,4.7-6.6,4.7c-0.2,0-0.4,0-0.7-0.1l4.2-5.9c0.3-0.4,0.2-1-0.2-1.3c-0.4-0.3-1-0.2-1.3,0.2c0,0,0,0,0,0l-4.2,5.9
			c-0.3-0.4-0.5-0.9-0.6-1.4C38.9,25.6,40.2,22.8,42.7,21.5z"/>
		<path class="st2" d="M55.8,43L55.8,43c0-2.2-3.2-3.6-10.2-4.6c-0.5-0.1-1,0.3-1.1,0.8c-0.1,0.5,0.3,1,0.8,1.1
			C53.8,41.5,54,43,54,43l0,0c0,1.3-6.6,3.7-18.7,3.7S16.5,44.3,16.5,43l0,0c0-1.3,6.6-3.7,18.7-3.7c0.5,0,0.9-0.4,0.9-0.9
			s-0.4-0.9-0.9-0.9c-9.9,0-20.5,1.8-20.6,5.6l0,0v0.1c0,1.2,0.7,22.4,20.6,22.4S55.8,44.2,55.8,43L55.8,43L55.8,43z M35.2,48.6
			c7.3,0,14.9-0.9,18.5-3c-0.1,0.7-0.2,1.4-0.4,2.2c-0.8,0.4-5.6,2.6-18.1,2.6s-17.4-2.2-18.1-2.6c-0.2-0.8-0.3-1.6-0.4-2.2
			C20.3,47.7,28,48.6,35.2,48.6z M35.2,63.6c-7.7,0-13.2-3.4-16.3-10.2c-0.5-1.1-0.9-2.2-1.2-3.3c2.4,0.9,7.8,2.2,17.6,2.2
			s15.1-1.3,17.6-2.2c-0.3,1.1-0.7,2.2-1.2,3.3C48.5,60.2,43,63.6,35.2,63.6z"/>
		<path class="st2" d="M59.6,26.1c-3.1,0-5.6,3.4-5.6,7.5c-0.1,2.5,0.9,4.9,2.8,6.5v22.6c0,1.6,1.3,2.8,2.8,2.8
			c1.6,0,2.8-1.3,2.8-2.8V40.1c1.9-1.6,2.9-4,2.8-6.5C65.2,29.5,62.7,26.1,59.6,26.1z M61,38.8c-0.3,0.2-0.4,0.5-0.4,0.8v23.1
			c0,0.5-0.4,0.9-0.9,0.9c-0.5,0-0.9-0.4-0.9-0.9V39.6c0-0.3-0.2-0.6-0.4-0.8c-1.4-0.9-2.4-2.9-2.4-5.2c0-3,1.7-5.6,3.7-5.6
			c2,0,3.7,2.6,3.7,5.6C63.3,35.9,62.4,37.9,61,38.8z"/>
		<path class="st2" d="M16.5,36.4V27c0-0.5-0.4-0.9-0.9-0.9s-0.9,0.4-0.9,0.9v5.6h-2.8V27c0-0.5-0.4-0.9-0.9-0.9
			c-0.5,0-0.9,0.4-0.9,0.9v5.6H7.1V27c0-0.5-0.4-0.9-0.9-0.9S5.2,26.5,5.2,27v9.4c0,1.7,1.2,3.2,2.8,3.6v22.6c0,1.6,1.3,2.8,2.8,2.8
			s2.8-1.3,2.8-2.8V40C15.3,39.6,16.5,38.1,16.5,36.4z M14.6,36.4c0,1-0.8,1.9-1.9,1.9c-0.5,0-0.9,0.4-0.9,0.9v23.4
			c0,0.5-0.4,0.9-0.9,0.9c-0.5,0-0.9-0.4-0.9-0.9V39.2c0-0.5-0.4-0.9-0.9-0.9c-1,0-1.9-0.8-1.9-1.9v-1.9h7.5V36.4z"/>
		<path class="st2" d="M32.2,28l-3.7,0.9c-0.5,0.1-0.8,0.6-0.7,1.1c0,0,0,0,0,0l0.9,4.7c0.1,0.3,0.3,0.5,0.5,0.7
			c0.1,0.1,0.3,0.1,0.4,0.1c0.2,0,0.3,0,0.5-0.1l4.7-2.8c0.4-0.3,0.6-0.8,0.3-1.3c0,0,0,0,0,0l-1.9-2.8C33,28.1,32.6,27.9,32.2,28z
			 M30.2,33.1l-0.5-2.5L32,30l0.9,1.4L30.2,33.1z"/>
		<path class="st2" d="M29.6,43c0,1.6,1.3,2.8,2.8,2.8c1.6,0,2.8-1.3,2.8-2.8c0-1.6-1.3-2.8-2.8-2.8C30.9,40.2,29.6,41.4,29.6,43z
			 M33.3,43c0,0.5-0.4,0.9-0.9,0.9c-0.5,0-0.9-0.4-0.9-0.9c0-0.5,0.4-0.9,0.9-0.9C32.9,42,33.3,42.5,33.3,43z"/>
		<path class="st2" d="M41.8,35.5H38c-0.5,0-0.9,0.4-0.9,0.9V42c0,0.5,0.4,0.9,0.9,0.9h0.1l5.6-0.9c0.3,0,0.5-0.2,0.7-0.5
			c0.1-0.2,0.2-0.5,0.1-0.8l-1.9-4.7C42.5,35.7,42.2,35.5,41.8,35.5z M39,40.9v-3.6h2.2l1.2,3L39,40.9z"/>
		<path class="st2" d="M29,59c-4.1-1.7-5-4.8-5-5c-0.1-0.5-0.6-0.8-1.1-0.7c-0.5,0.1-0.8,0.6-0.7,1.1c1,2.9,3.3,5.2,6.2,6.3
			c0.1,0,0.2,0.1,0.3,0.1c0.5,0,0.9-0.4,0.9-0.9C29.6,59.5,29.4,59.1,29,59z"/>
		<rect x="30.5" y="59.9" class="st2" width="1.9" height="1.9"/>
	</g>
</g>
<g id="FELCHA" class="st0">
	<g id="Icon" class="st1">
		<g id="_46">
			<path class="st2" d="M27.4,64.8c-0.5,0.4-1.1,0.6-1.8,0.6s-1.8-0.3-3.2-1c-1.4-0.6-2.6-1.6-3.5-2.8s-1.4-2.1-1.4-2.7
				c0-0.6,0.2-1.1,0.6-1.5l20.5-22.7L17.8,13.4c-0.4-0.4-0.6-0.9-0.6-1.5c0-0.6,0.4-1.5,1.4-2.7s2.1-2.2,3.5-2.8
				c1.4-0.6,2.5-1,3.2-1s1.3,0.2,1.8,0.7L50.5,32c0.9,0.9,1.4,1.8,1.4,2.5c0,0.8-0.3,1.4-1,2.1L27.4,64.8z"/>
		</g>
	</g>
</g>
<g id="PARQUES" class="st0">
	<g class="st1">
		<path class="st2" d="M38.8,28.7c0-2.3-1.9-4.3-4.3-4.3s-4.3,1.9-4.3,4.3c0,2.3,1.9,4.3,4.3,4.3C36.9,33,38.8,31.1,38.8,28.7
			L38.8,28.7z M32,28.7c0-1.4,1.1-2.5,2.5-2.5c1.4,0,2.5,1.1,2.5,2.5c0,1.4-1.1,2.5-2.5,2.5S32,30.1,32,28.7z M58.2,26.8
			c-0.1,0-0.3,0-0.4,0c-0.2-2.1-0.6-4.2-1.4-6.2c0.1-0.3,0.2-0.6,0.2-1v-3.9c0-2.5-2-4.5-4.5-4.5c-0.6,0-1.2,0.1-1.7,0.3
			c-1.2-1.1-2.5-2.1-3.8-2.9c-0.4-0.3-1-0.1-1.2,0.3c-0.2,0.4-0.1,1,0.3,1.2c1.2,0.7,2.2,1.5,3.2,2.4c-0.4,0.4-0.8,1-1,1.6L40,22
			c-1.3-1.1-2.9-1.8-4.6-1.9v-3.7h1.1c1.4,0,2.6-1.2,2.6-2.6V9.9c0-0.9-0.3-1.7-0.7-2.4c1.3,0.2,2.5,0.6,3.7,1
			c0.5,0.2,1-0.1,1.1-0.5c0.2-0.5-0.1-1-0.5-1.1c-2.6-1-5.4-1.5-8.2-1.5c-5.9,0-11.5,2.2-15.9,6.2c-0.5-0.2-1.1-0.3-1.7-0.3
			c-2.5,0-4.5,2-4.5,4.5v3.9c0,0.3,0.1,0.7,0.2,1c-0.7,2-1.2,4.1-1.4,6.2c-0.1,0-0.3,0-0.4,0c-2.5,0-4.5,2-4.5,4.5v3.9
			c0,1.4,1.2,2.6,2.6,2.6c0.2,0,3.9,0,4.1,0c0.6,1.5,1.4,2.9,2.3,4.3c-2.1,0.4-3.7,2.2-3.7,4.5v3.9c0,1.4,1.2,2.6,2.6,2.6H18
			c1.4,0,2.6-1.2,2.6-2.6v-2.8c0.9,0.7,1.9,1.3,3,1.9L22.3,53c-0.2,0.5,0.1,1,0.5,1.1c0.4,0.2,1-0.1,1.1-0.5c0,0,6.1-17.3,6.1-17.3
			c0.5,0.3,1,0.5,1.5,0.7l-9.3,26.6h-1.9l2.2-6.2c0.2-0.5-0.1-1-0.5-1.1c-0.5-0.2-1,0.1-1.1,0.5l-2.4,6.7H14c-0.5,0-0.9,0.4-0.9,0.9
			c0,0.5,0.4,0.9,0.9,0.9h41c0.5,0,0.9-0.4,0.9-0.9c0-0.5-0.4-0.9-0.9-0.9h-4.6l-5-14.2c1-0.6,2-1.2,3-1.9v2.8
			c0,1.4,1.2,2.6,2.6,2.6h3.9c1.4,0,2.6-1.2,2.6-2.6v-3.9c0-2.2-1.6-4.1-3.7-4.5c0.9-1.3,1.7-2.8,2.3-4.3c0.4,0,3.7,0,4.1,0
			c1.4,0,2.6-1.2,2.6-2.6v-3.9C62.8,28.8,60.7,26.8,58.2,26.8L58.2,26.8z M58.2,28.5c1.4,0,2.6,1.1,2.8,2.5h-5.5
			C55.6,29.6,56.8,28.5,58.2,28.5z M52.1,13c1.4,0,2.6,1.1,2.8,2.5h-5.5C49.5,14.1,50.7,13,52.1,13z M49.3,17.2h5.5v2.4
			c0,0.5-0.4,0.8-0.8,0.8h-3.9c-0.5,0-0.8-0.4-0.8-0.8V17.2z M34.5,7.1c1.4,0,2.6,1.1,2.8,2.5h-5.5C31.9,8.2,33.1,7.1,34.5,7.1z
			 M31.7,11.4h5.5v2.4c0,0.5-0.4,0.8-0.8,0.8h-3.9c-0.5,0-0.8-0.4-0.8-0.8V11.4z M30.7,7.5C30.3,8.2,30,9,30,9.9v3.9
			c0,1.4,1.2,2.6,2.6,2.6h1.1V20c-1.8,0.2-3.4,0.9-4.6,1.9l-7.8-7.8c-0.2-0.6-0.6-1.1-1-1.6C23.2,9.9,26.8,8.2,30.7,7.5z M16.9,13
			c1.4,0,2.6,1.1,2.8,2.5h-5.5C14.3,14.1,15.5,13,16.9,13z M14.2,17.2h5.5v2.4c0,0.5-0.4,0.8-0.8,0.8H15c-0.5,0-0.8-0.4-0.8-0.8
			V17.2z M10.8,28.5c1.4,0,2.6,1.1,2.8,2.5H8.1C8.2,29.6,9.4,28.5,10.8,28.5z M13.6,35.2c0,0.5-0.4,0.8-0.8,0.8H8.9
			C8.4,36,8,35.6,8,35.2v-2.4h5.5V35.2z M13,27.3c0.1-1.8,0.5-3.6,1-5.3c0.3,0.1,0.7,0.2,1,0.2h3.9c1.4,0,2.6-1.2,2.6-2.6v-2.7
			l6.3,6.3c-1.1,1.3-1.8,2.9-1.9,4.6H13.8C13.5,27.6,13.2,27.5,13,27.3L13,27.3z M16.1,43.7c1.4,0,2.6,1.1,2.8,2.5h-5.5
			C13.5,44.8,14.6,43.7,16.1,43.7z M18.8,50.3c0,0.5-0.4,0.8-0.8,0.8h-3.9c-0.5,0-0.8-0.4-0.8-0.8v-2.4h5.5V50.3z M19,43
			c-0.4-0.4-0.9-0.6-1.4-0.8c-1.3-1.6-2.3-3.3-3.1-5.2c0.5-0.5,0.8-1.1,0.8-1.9v-3.9c0-0.6-0.1-1.2-0.3-1.7h10.8
			c0.2,1.8,0.9,3.4,1.9,4.6L19,43z M24.2,47.7c-1.4-0.7-2.6-1.6-3.8-2.6c-0.1-0.2-0.2-0.5-0.3-0.7l8.1-8.1L24.2,47.7z M27.5,28.7
			c0-3.8,3.1-7,7-7c0,0,0,0,0,0c0,0,0,0,0,0c3.8,0,7,3.1,7,7c0,3.8-3.1,7-7,7C30.7,35.7,27.5,32.6,27.5,28.7z M37.3,56.3v2.4
			c0,0.5-0.4,0.8-0.8,0.8h-3.9c-0.5,0-0.8-0.4-0.8-0.8v-2.4H37.3z M31.8,54.6c0.2-1.4,1.3-2.5,2.8-2.5c1.4,0,2.6,1.1,2.8,2.5H31.8z
			 M35.4,50.3V37.4c0.1,0,0.2,0,0.3,0L40,49.7C38.5,50,37,50.3,35.4,50.3z M33.3,37.4c0.1,0,0.2,0,0.3,0v12.9
			c-1.6-0.1-3.1-0.3-4.6-0.7L33.3,37.4z M24.2,63.6l4.3-12.3c0.9,0.2,1.8,0.4,2.7,0.5c-0.7,0.8-1.2,1.9-1.2,3v3.9
			c0,1.4,1.2,2.6,2.6,2.6h3.9c1.4,0,2.6-1.2,2.6-2.6v-3.9c0-1.2-0.4-2.2-1.2-3c0.9-0.1,1.8-0.3,2.7-0.5l4.3,12.3H24.2z M48.6,63.6
			h-1.9L37.4,37c0.5-0.2,1.1-0.4,1.5-0.7L48.6,63.6z M48.7,45.1c-1.2,1-2.4,1.9-3.8,2.6l-4-11.4l8.1,8.1
			C48.8,44.6,48.7,44.9,48.7,45.1L48.7,45.1z M55.8,50.3c0,0.5-0.4,0.8-0.8,0.8H51c-0.5,0-0.8-0.4-0.8-0.8v-2.4h5.5V50.3z
			 M55.7,46.1h-5.5c0.2-1.4,1.3-2.5,2.8-2.5S55.6,44.8,55.7,46.1z M51.4,42.2c-0.5,0.2-1,0.5-1.4,0.8l-8.7-8.7
			c1.1-1.3,1.8-2.9,1.9-4.6H54c-0.2,0.5-0.3,1.1-0.3,1.7v3.9c0,0.7,0.3,1.4,0.8,1.9C53.7,38.9,52.7,40.6,51.4,42.2z M43.2,27.9
			c-0.2-1.8-0.9-3.4-1.9-4.6l6.3-6.3v2.7c0,1.4,1.2,2.6,2.6,2.6H54c0.4,0,0.7-0.1,1-0.2c0.6,1.7,0.9,3.5,1,5.3
			c-0.3,0.2-0.6,0.3-0.8,0.6L43.2,27.9L43.2,27.9z M61,35.2c0,0.5-0.4,0.8-0.8,0.8h-3.9c-0.5,0-0.8-0.4-0.8-0.8v-2.4H61V35.2z"/>
	</g>
</g>
<g id="RESTAURANTES" class="st0">
	<g id="_5-restaurant" class="st1">
		<path class="st2" d="M10.7,51.4c0.5,0,0.9-0.4,0.9-0.9c0-0.2-0.1-0.4-0.2-0.5c-5.3-8.1-6.1-18.4-2-27.2c0.2-0.5,0-1-0.4-1.2
			c-0.5-0.2-1,0-1.2,0.4c0,0,0,0,0,0c-4.3,9.4-3.5,20.4,2.2,29C10.1,51.2,10.4,51.4,10.7,51.4z"/>
		<path class="st2" d="M50.5,58c-9.4,6.1-21.5,6.1-30.8,0c-0.4-0.3-1-0.2-1.3,0.3c-0.3,0.4-0.2,1,0.3,1.3c10,6.5,22.9,6.5,32.9,0
			c0.4-0.3,0.6-0.9,0.3-1.3C51.5,57.9,50.9,57.8,50.5,58L50.5,58L50.5,58z"/>
		<path class="st2" d="M58.8,51.2c0.4,0.3,1,0.2,1.3-0.3c0,0,0,0,0,0c5.3-8,6.4-18.1,3-27.1c-0.2-0.5-0.7-0.7-1.2-0.5
			c-0.5,0.2-0.7,0.7-0.5,1.2c3.2,8.4,2.1,17.9-2.8,25.4C58.3,50.4,58.4,51,58.8,51.2C58.8,51.2,58.8,51.2,58.8,51.2z"/>
		<path class="st2" d="M19.2,11.1c0.2,0,0.4-0.1,0.5-0.2C27.2,6.1,36.6,5.1,45,8.2c0.5,0.2,1,0,1.2-0.5s0-1-0.5-1.2c0,0,0,0,0,0
			c-8.9-3.4-19-2.3-27,2.9c-0.4,0.3-0.6,0.9-0.3,1.3C18.6,10.9,18.9,11.1,19.2,11.1z"/>
		<path class="st2" d="M14.2,28.9c-0.5-0.1-1,0.2-1.1,0.7c0,0,0,0,0,0c-1.2,5.3-0.4,10.9,2.2,15.7c0.2,0.3,0.5,0.5,0.8,0.5
			c0.2,0,0.3,0,0.4-0.1c0.5-0.2,0.6-0.8,0.4-1.3c0,0,0,0,0,0c-2.4-4.4-3.1-9.5-2-14.3C15,29.5,14.7,29,14.2,28.9
			C14.2,28.9,14.2,28.9,14.2,28.9z"/>
		<path class="st2" d="M23.6,52.8c-0.3,0.4-0.1,1,0.4,1.3c0,0,0,0,0,0c6.9,3.9,15.3,3.9,22.2,0c0.4-0.3,0.6-0.8,0.4-1.3
			c-0.3-0.4-0.8-0.6-1.3-0.4c-6.3,3.6-14.1,3.6-20.4,0C24.4,52.2,23.8,52.4,23.6,52.8C23.6,52.8,23.6,52.8,23.6,52.8z"/>
		<path class="st2" d="M53.3,46c0.4,0.3,1,0.1,1.3-0.4c0,0,0,0,0,0c1.9-3.4,2.9-7.2,2.9-11.1c0-1.3-0.1-2.6-0.3-3.9
			c-0.1-0.5-0.6-0.9-1.1-0.8c-0.5,0.1-0.9,0.6-0.8,1.1c0.8,4.7,0,9.6-2.4,13.8C52.7,45.2,52.9,45.7,53.3,46z"/>
		<path class="st2" d="M24.3,14.8c-0.5,0.2-0.6,0.8-0.4,1.3c0.2,0.5,0.8,0.6,1.3,0.4c4.1-2.2,8.8-3,13.5-2.2c0.5,0.1,1-0.3,1.1-0.8
			c0.1-0.5-0.3-1-0.8-1.1C33.9,11.5,28.8,12.3,24.3,14.8z"/>
		<path class="st2" d="M41.5,35.7c-0.4-0.4-1-0.3-1.3,0c-0.4,0.4-0.4,0.9,0,1.3l6.1,6.1l-2.5,2.5l-2.7-3.7c-0.3-0.4-0.7-0.5-1.1-0.3
			l-6.6,2.7c-0.5,0.2-0.7,0.7-0.5,1.2C33,46,33.5,46.2,34,46c0,0,0,0,0,0l5.9-2.4l2.9,4c0,0,0.1,0.1,0.1,0.1l15.9,15.9
			c1.1,1.1,2.9,1.1,4,0c0,0,0,0,0,0l1.3-1.3c1.1-1.1,1.1-2.9,0-4c0,0,0,0,0,0L41.5,35.7z M62.9,61.1l-1.3,1.3c-0.4,0.4-1,0.4-1.3,0
			L45,47.1l2.7-2.7l15.2,15.2C63.2,60.1,63.2,60.7,62.9,61.1C62.9,61.1,62.9,61.1,62.9,61.1z"/>
		<path class="st2" d="M13.2,25.9l11.1,11.1c0.4,0.4,1,0.3,1.3,0c0.4-0.4,0.4-0.9,0-1.3L14.5,24.6c-0.1-0.1-9.3-10.6-4-17.2
			l21.9,21.9c0.4,0.4,1,0.3,1.3,0c0.4-0.4,0.4-0.9,0-1.3L11.2,5.4c-0.4-0.4-1-0.4-1.3,0c-3.3,3.3-3.7,7.9-1.3,13.4
			C9.8,21.3,11.3,23.8,13.2,25.9z"/>
		<path class="st2" d="M16.6,17c-0.4,0.4-0.4,1,0,1.3l8.4,8.4c0.4,0.4,1,0.3,1.3,0c0.4-0.4,0.4-0.9,0-1.3L17.9,17
			C17.5,16.6,16.9,16.6,16.6,17z"/>
		<path class="st2" d="M27.8,28.2c-0.4,0.4-0.4,1,0,1.3l0.9,0.9c0.4,0.4,1,0.3,1.3,0c0.4-0.4,0.4-0.9,0-1.3l-0.9-0.9
			C28.8,27.9,28.2,27.9,27.8,28.2z"/>
		<path class="st2" d="M54.2,30l10.6-10.7c0.4-0.4,0.4-1,0-1.3c0,0,0,0,0,0l-1.3-1.2c-1.1-1-2.9-1-4,0L50.2,26
			c-0.2,0.2-0.4,0.3-0.7,0.2c-0.2,0-0.5-0.1-0.7-0.2c-0.3-0.4-0.3-0.9,0-1.3l9.3-9.2c0.2-0.2,0.3-0.4,0.3-0.7V12
			c0-0.5-0.4-0.9-0.9-0.9h-2.8c-0.3,0-0.5,0.1-0.7,0.3l-9.2,9.3c-0.4,0.3-0.9,0.3-1.3,0c-0.2-0.2-0.3-0.4-0.2-0.7
			c0-0.2,0.1-0.5,0.2-0.7l9.3-9.3c1.1-1.1,1.1-2.8,0-3.9l-1.2-1.3c-0.3-0.4-0.9-0.4-1.3-0.1c0,0,0,0,0,0L39.6,15.4
			c-0.1,0.1-5.3,5.4-2.2,11.5L5.9,58.4c-1.1,1.1-1.1,2.9,0,4l1.3,1.3c1.1,1.1,2.9,1.1,4,0l31.5-31.5C48.7,35.3,54.1,30,54.2,30z
			 M9.8,62.4c-0.4,0.4-1,0.4-1.3,0l-1.3-1.3c-0.4-0.4-0.4-1,0-1.3c0,0,0,0,0,0l15.2-15.2l2.7,2.7L9.8,62.4z M41.8,30.4L26.4,45.8
			l-2.7-2.7l15.4-15.4c0.3-0.3,0.4-0.8,0.1-1.1c-3-5.1,1.4-9.7,1.6-9.9l10-9.9l0.6,0.6c0.4,0.4,0.4,1,0,1.3c0,0,0,0,0,0l-9.3,9.3
			c-0.5,0.5-0.8,1.3-0.8,2c0,0.7,0.3,1.4,0.8,1.9c1.1,1.1,2.9,1.1,4,0l8.9-9.1h1.5v1.5l-9.1,8.9c-1.1,1.1-1.1,2.9,0,4
			c0.5,0.5,1.2,0.8,1.9,0.8c0.8,0,1.5-0.3,2-0.8l9.3-9.3c0.4-0.4,1-0.4,1.3,0l0,0l0.6,0.5l-9.9,10c0,0-4.8,4.7-9.9,1.6
			C42.6,30.1,42.1,30.1,41.8,30.4z"/>
	</g>
</g>
<g id="EVENTOS" class="st0">
	<path class="st3" d="M64.7,52.1l-7.2-38.5c-0.1-0.3-0.3-0.6-0.6-0.8c0-0.3-4.6-0.1-4.8-0.2v-1.2c0-2-1.6-3.6-3.6-3.6
		c-2,0-3.6,1.6-3.6,3.6c0,0,0,0,0,0v1.2H26.1v-1.2c0-2-1.7-3.6-3.6-3.6c-2,0-3.5,1.6-3.6,3.6v1.2h-3.7c-1.7,0.1-3,1.4-3.1,3
		L8.7,42.9c-0.1,0.6,0.4,1.2,1,1.2c0.6,0.1,1.1-0.4,1.2-1l2.3-18.9h40.9l-3.5,33.1c0,0.5-0.4,1-0.9,1.1l-29.2-0.3
		c2.7-5.3-1.5-12.1-7.5-12C2,46.6,2,62.5,13,62.9c2.3,0,4.4-0.9,6-2.6l30.7,0.3c1.7-0.1,3.1-1.4,3.2-3.1l0.2-1.4h8.7
		c1.9-0.1,3.3-1.7,3.2-3.6C64.7,52.4,64.7,52.2,64.7,52.1z M13,60.7c-8-0.3-8-12,0-12.3C21,48.7,21,60.4,13,60.7z M47.1,11.4
		c0-0.8,0.6-1.4,1.4-1.4c0.7,0,1.4,0.6,1.4,1.4V16c0,0.8-0.6,1.4-1.4,1.4c-0.8,0-1.4-0.6-1.4-1.4V11.4z M21.1,11.4
		c0-0.8,0.6-1.4,1.4-1.4c0.7,0,1.4,0.6,1.4,1.4c0,1.1,0,3.4,0,4.6c0,0.8-0.6,1.4-1.4,1.4c-0.7,0-1.4-0.6-1.4-1.4L21.1,11.4z
		 M13.5,22l0.7-6.1c0-0.5,0.4-1,0.9-1.1h3.7V16c0,2,1.7,3.6,3.6,3.6c2,0,3.5-1.6,3.6-3.6v-1.2h18.8V16c0,2,1.7,3.6,3.7,3.6
		c2,0,3.5-1.6,3.6-3.6v-1.2h3L54.4,22L13.5,22z M62.2,53.6c-0.2,0.2-0.4,0.3-0.6,0.3h-8.4l3.5-32.6l5.8,31.1
		C62.6,52.9,62.5,53.3,62.2,53.6z"/>
	<path class="st3" d="M38,34.6c-0.1,0-0.2-0.1-0.3-0.2l-2.4-4.9c-0.7-1.3-2.2-1.8-3.5-1.2c-0.5,0.3-0.9,0.7-1.2,1.2l-2.4,4.9
		c-0.1,0.1-0.2,0.2-0.3,0.2l-5.4,0.8c-1.4,0.2-2.4,1.5-2.2,3c0.1,0.6,0.4,1.1,0.8,1.5l3.9,3.8C25,43.7,25,43.9,25,44L24,49.4
		c-0.2,1.4,0.7,2.8,2.2,3c0.6,0.1,1.1,0,1.7-0.3l4.9-2.5c0.1-0.1,0.3-0.1,0.4,0l4.9,2.5c0.9,0.5,2,0.4,2.8-0.2
		c0.8-0.6,1.2-1.6,1-2.6L40.9,44c0-0.1,0-0.3,0.1-0.3l3.9-3.8c1-1,1-2.7,0-3.7c-0.4-0.4-0.9-0.7-1.5-0.7L38,34.6z M43.4,38.2
		L39.4,42c-0.6,0.6-0.9,1.5-0.8,2.3l0.9,5.4c0,0.2-0.1,0.4-0.3,0.5c-0.1,0-0.2,0-0.3,0l-4.9-2.5c-0.8-0.4-1.7-0.4-2.4,0l-4.9,2.5
		c-0.2,0.1-0.4,0-0.5-0.1c0-0.1-0.1-0.2,0-0.3l0.9-5.4c0.1-0.9-0.1-1.7-0.8-2.3l-3.9-3.8c-0.2-0.1-0.2-0.4,0-0.5
		c0.1-0.1,0.2-0.1,0.3-0.1l5.4-0.8c0.9-0.1,1.6-0.7,2-1.4l2.4-4.9c0.1-0.2,0.4-0.3,0.6-0.2c0.1,0,0.1,0.1,0.2,0.2l2.4,4.9
		c0.4,0.8,1.1,1.3,2,1.4l5.4,0.8c0.2,0,0.4,0.2,0.4,0.4C43.5,38.1,43.4,38.2,43.4,38.2L43.4,38.2z"/>
	<path class="st3" d="M15.2,51.8l-3.1,3.2c-0.8-0.6-1.8-2.4-2.9-1.3c-0.4,0.4-0.4,1.1,0,1.6l2.1,2.1c0.4,0.4,1.1,0.4,1.6,0
		c0,0,0,0,0,0l3.9-4c0.4-0.4,0.4-1.1,0-1.6C16.3,51.4,15.7,51.4,15.2,51.8z"/>
	<path class="st3" d="M20.5,28h-4.7c-0.6,0-1.1,0.5-1.1,1.1c0,0.6,0.5,1.1,1.1,1.1h4.7c0.6,0,1.1-0.5,1.1-1.1
		C21.5,28.5,21.1,28,20.5,28z"/>
	<path class="st3" d="M50,30.2c0.6,0,1.1-0.5,1.1-1.1c0-0.6-0.5-1.1-1.1-1.1h-4.7c-0.6,0-1.1,0.5-1.1,1.1c0,0.6,0.5,1.1,1.1,1.1
		L50,30.2z"/>
</g>
<g id="TIENDAS">
	<path class="st2" d="M62.5,59.9l-7.4-38.7c-0.1-0.4-0.4-0.7-0.8-0.8c0,0-0.1,0-0.1,0h-6.7l0.2-6.9c0.1-2.6-0.9-4.8-2.7-6.4
		c-1.6-1.4-3.7-2.2-6-2.2c-1.7,0-3.4,0.3-4.9,1.1c-2.6-1.5-6.1-1.5-8.7,0.1c-2.6,1.5-4,4.1-4,7.4l-0.1,6.9h-6.1
		c-0.4,0-0.8,0.3-0.9,0.8L6.7,59.9C6.5,61,6.8,62.1,7.6,63c0.9,1.2,2.4,1.9,3.8,1.9h46.5c1.6,0,2.8-0.5,3.6-1.5
		c0.2-0.2,0.3-0.5,0.4-0.7C62.5,61.8,62.7,60.8,62.5,59.9L62.5,59.9z M38.9,6.8c1.9,0,3.6,0.7,4.8,1.8c1.4,1.2,2,2.9,2,4.9l-0.2,6.9
		H38l0.1-6.9c0-2.5-0.8-4.7-2.3-6.2C36.8,7,37.8,6.8,38.9,6.8L38.9,6.8z M34,8.3c1.5,1.2,2.3,3,2.2,5.3l-0.1,6.9h-5l0.2-6.9
		C31.3,11.1,32.4,9.4,34,8.3L34,8.3z M23.2,13.5c0-2.6,1.1-4.6,3.1-5.8c1.8-1,4-1.2,5.9-0.5c-1.6,1.4-2.7,3.5-2.7,6.2l-0.2,6.9h-6.2
		L23.2,13.5L23.2,13.5z M9,61.8c-0.3-0.3-0.6-0.9-0.4-1.6l7.3-37.9h5.4l0,2.7c-1.9,0.4-3.3,2.2-3.3,4.3c0,2.4,1.9,4.4,4.2,4.4
		s4.2-2,4.2-4.4c0-2.1-1.4-3.9-3.3-4.3l0-2.7h13l0,2.7c-1.9,0.4-3.4,2.2-3.4,4.3c0,2.4,1.9,4.4,4.2,4.4s4.2-2,4.2-4.4
		c0-2.1-1.4-3.8-3.3-4.3l0-2.8h5.7L39.4,63h-28C10.5,63,9.5,62.5,9,61.8L9,61.8z M22.1,26.9c1.3,0,2.4,1.1,2.4,2.5s-1.1,2.5-2.4,2.5
		s-2.4-1.1-2.4-2.5C19.7,28,20.8,26.9,22.1,26.9z M36.9,26.9c1.3,0,2.4,1.1,2.4,2.5s-1.1,2.5-2.4,2.5c-1.3,0-2.4-1.1-2.4-2.5
		C34.6,28,35.6,26.9,36.9,26.9z M41.3,63l4.2-40.6h7.9l7,36.3c0.3,1.3,0.2,2.4,0,3.1c0,0,0,0.1-0.1,0.1c-0.6,0.7-1.5,1.2-2.4,1.2
		L41.3,63L41.3,63z M24.4,40.3c0,1.7,1,2.1,3.5,2.6c2.1,0.4,5,1,5,4.5c0,2.2-1.8,4-4.2,4.4v1.2c0,0.5-0.4,1-0.9,1s-0.9-0.4-0.9-1
		v-1.2c-2.4-0.4-4.2-2.2-4.2-4.4c0-0.5,0.4-1,0.9-1s0.9,0.4,0.9,1c0,1.4,1.5,2.6,3.3,2.6s3.3-1.2,3.3-2.6c0-1.7-1-2.1-3.5-2.6
		c-2.1-0.4-5-1-5-4.5c0-2.2,1.8-4,4.2-4.4v-1.2c0-0.5,0.4-1,0.9-1s0.9,0.4,0.9,1v1.2c2.4,0.4,4.2,2.2,4.2,4.4c0,0.5-0.4,1-0.9,1
		s-0.9-0.4-0.9-1c0-1.4-1.5-2.6-3.3-2.6S24.4,38.9,24.4,40.3z M56,54.1c0.4,2.3,0.2,4-0.7,5.2c-0.8,1-2,1.5-3.6,1.5h-5.3
		c-0.5,0-0.9-0.4-0.9-1c0-0.5,0.4-1,0.9-1h5.3c1,0,1.8-0.3,2.2-0.8c0.5-0.7,0.6-1.9,0.3-3.6L50.9,39c-0.1-0.5,0.2-1,0.7-1.2
		c0.5-0.1,1,0.2,1.1,0.7L56,54.1C56,54.1,56,54.1,56,54.1L56,54.1z"/>
</g>
</svg>
